{
  "accessors": [
    {
      "bufferView": 2,
      "componentType": 5126,
      "count": 7562,
      "max": [
        0.7767447829246521,
        0.14998595416545868,
        0.8070434927940369
      ],
      "min": [
        -0.6712207198143005,
        -0.14998596906661987,
        -0.8070435523986816
      ],
      "type": "VEC3"
    },
    {
      "bufferView": 2,
      "byteOffset": 90744,
      "componentType": 5126,
      "count": 7562,
      "max": [
        1.0,
        1.0,
        0.9995283484458923
      ],
      "min": [
        -1.0,
        -1.0,
        -0.9995284080505371
      ],
      "type": "VEC3"
    },
    {
      "bufferView": 1,
      "componentType": 5126,
      "count": 7562,
      "max": [
        0.0,
        0.0
      ],
      "min": [
        0.0,
        0.0
      ],
      "type": "VEC2"
    },
    {
      "bufferView": 0,
      "componentType": 5125,
      "count": 45360,
      "type": "SCALAR"
    }
  ],
  "asset": {
    "extras": {
      "author": "vijay verma (https://sketchfab.com/realvjy)",
      "license": "CC-BY-4.0 (http://creativecommons.org/licenses/by/4.0/)",
      "source": "https://sketchfab.com/3d-models/playfbx-071c183629904eaca20f11a77107bf19",
      "title": "play.fbx"
    },
    "generator": "Sketchfab-12.66.0",
    "version": "2.0"
  },
  "bufferViews": [
    {
      "buffer": 0,
      "byteLength": 181440,
      "name": "floatBufferViews",
      "target": 34963
    },
    {
      "buffer": 0,
      "byteLength": 60496,
      "byteOffset": 181440,
      "byteStride": 8,
      "name": "floatBufferViews",
      "target": 34962
    },
    {
      "buffer": 0,
      "byteLength": 181488,
      "byteOffset": 241936,
      "byteStride": 12,
      "name": "floatBufferViews",
      "target": 34962
    }
  ],
  "buffers": [
    {
      "byteLength": 423424,
      "uri": "scene.bin"
    }
  ],
  "materials": [
    {
      "doubleSided": true,
      "name": "Color_-_Red",
      "pbrMetallicRoughness": {
        "baseColorFactor": [
          0.428691,
          0.0159962,
          0.0395463,
          1.0
        ],
        "metallicFactor": 0.0,
        "roughnessFactor": 0.9721044068347064
      }
    }
  ],
  "meshes": [
    {
      "name": "Play_Color - Red_0",
      "primitives": [
        {
          "attributes": {
            "NORMAL": 1,
            "POSITION": 0,
            "TEXCOORD_0": 2
          },
          "indices": 3,
          "material": 0,
          "mode": 4
        }
      ]
    }
  ],
  "nodes": [
    {
      "children": [
        1
      ],
      "matrix": [
        1.0,
        0.0,
        0.0,
        0.0,
        0.0,
        2.220446049250313e-16,
        -1.0,
        0.0,
        0.0,
        1.0,
        2.220446049250313e-16,
        0.0,
        0.0,
        0.0,
        0.0,
        1.0
      ],
      "name": "Sketchfab_model"
    },
    {
      "children": [
        2
      ],
      "matrix": [
        0.009999999776482582,
        0.0,
        0.0,
        0.0,
        0.0,
        0.0,
        0.009999999776482582,
        0.0,
        0.0,
        -0.009999999776482582,
        0.0,
        0.0,
        0.0,
        0.0,
        0.0,
        1.0
      ],
      "name": "d6a491197c3d4be5acb849cdbffde2e6.fbx"
    },
    {
      "children": [
        3
      ],
      "name": "RootNode"
    },
    {
      "children": [
        4
      ],
      "matrix": [
        100.0,
        0.0,
        0.0,
        0.0,
        0.0,
        -1.629206793918314e-05,
        -99.99999999999868,
        0.0,
        0.0,
        99.99999999999868,
        -1.629206793918314e-05,
        0.0,
        0.0,
        0.0,
        0.0,
        1.0
      ],
      "name": "Play"
    },
    {
      "mesh": 0,
      "name": "Play_Color - Red_0"
    }
  ],
  "scene": 0,
  "scenes": [
    {
      "name": "Sketchfab_Scene",
      "nodes": [
        0
      ]
    }
  ]
}
